<svg fill="none" viewBox="0 0 1440 900" xmlns="http://www.w3.org/2000/svg">
    <g opacity=".08" stroke="#111827">
    <circle cx="-77" cy="473" r="113.5" />
    <circle cx="-77" cy="473" r="181.5" />
    <path d="m195.5 471.5c0 151.33-122 274-272.5 274s-272.5-122.67-272.5-274 122-274 272.5-274 272.5 122.67 272.5 274z" />
    <path d="m301.5 471.5c0 210.42-169.46 381-378.5 381s-378.5-170.58-378.5-381 169.46-381 378.5-381 378.5 170.58 378.5 381z" />
    <path d="m394.5 471.5c0 262.34-211.1 475-471.5 475s-471.5-212.66-471.5-475 211.1-475 471.5-475 471.5 212.66 471.5 475z" />
    <path d="m506.5 471.5c0 324.75-261.24 588-583.5 588s-583.5-263.25-583.5-588 261.24-588 583.5-588 583.5 263.25 583.5 588z" />
    <path d="m609.5 471.5c0 382.18-307.36 692-686.5 692s-686.5-309.82-686.5-692c0-382.18 307.36-692 686.5-692s686.5 309.82 686.5 692z" />
    <path d="m728.5 471.5c0 448.46-360.64 812-805.5 812s-805.5-363.54-805.5-812 360.64-812 805.5-812 805.5 363.54 805.5 812z" />
    <path d="m848.5 471.5c0 515.29-414.36 933-925.5 933s-925.5-417.71-925.5-933c0-515.29 414.36-933 925.5-933s925.5 417.71 925.5 933z" />
    <path d="m1000.5 471.5c0 599.78-482.42 1086-1077.5 1086s-1077.5-486.22-1077.5-1086c0-599.78 482.42-1086 1077.5-1086s1077.5 486.22 1077.5 1086z" />
    <path d="m1132.5 471.5c0 673.24-541.52 1219-1209.5 1219s-1209.5-545.76-1209.5-1219c0-673.24 541.52-1219 1209.5-1219s1209.5 545.76 1209.5 1219z" />
    <path d="m1279.5 473.5c0 750.56-603.75 1359-1348.5 1359s-1348.5-608.44-1348.5-1359c0-750.56 603.75-1359 1348.5-1359s1348.5 608.44 1348.5 1359z" />
    <g opacity=".4">
        <circle cx="1283" cy="-22" r="59.5" />
        <circle cx="1275" cy="-24" r="113.5" />
        <circle cx="1275" cy="-24" r="181.5" />
        <path d="m1547.5-25.5c0 151.33-122 274-272.5 274s-272.5-122.67-272.5-274 122-274 272.5-274 272.5 122.67 272.5 274z" />
        <path d="m1653.5-25.5c0 210.42-169.46 381-378.5 381s-378.5-170.58-378.5-381 169.46-381 378.5-381 378.5 170.58 378.5 381z" />
        <path d="m1746.5-25.5c0 262.34-211.1 475-471.5 475s-471.5-212.66-471.5-475 211.1-475 471.5-475 471.5 212.66 471.5 475z" />
        <path d="m1858.5-25.5c0 324.75-261.25 588-583.5 588-322.26 0-583.5-263.25-583.5-588s261.24-588 583.5-588c322.25 0 583.5 263.25 583.5 588z" />
        <path d="m1961.5-25.5c0 382.18-307.36 692-686.5 692s-686.5-309.82-686.5-692 307.36-692 686.5-692 686.5 309.82 686.5 692z" />
        <path d="m2080.5-25.5c0 448.46-360.64 812-805.5 812-444.86 0-805.5-363.54-805.5-812s360.64-812 805.5-812c444.86 0 805.5 363.54 805.5 812z" />
        <path d="m2200.5-25.5c0 515.29-414.36 933-925.5 933-511.14 0-925.5-417.71-925.5-933 0-515.28 414.36-933 925.5-933 511.14 0 925.5 417.72 925.5 933z" />
        <path d="m2352.5-25.5c0 599.78-482.42 1086-1077.5 1086-595.08 0-1077.5-486.22-1077.5-1086s482.42-1086 1077.5-1086c595.08 0 1077.5 486.22 1077.5 1086z" />
        <path d="m2484.5-25.5c0 673.24-541.52 1219-1209.5 1219-667.98 0-1209.5-545.76-1209.5-1219s541.52-1219 1209.5-1219c667.98 0 1209.5 545.76 1209.5 1219z" />
        <path d="m2631.5-23.5c0 750.56-603.75 1359-1348.5 1359-744.75 0-1348.5-608.44-1348.5-1359s603.75-1359 1348.5-1359c744.75 0 1348.5 608.44 1348.5 1359z" />
    </g>
    </g>
</svg>